<svg enable-background="new 0 0 512 512" viewBox="0 0 512 512" xmlns="http://www.w3.org/2000/svg"><g fill="#e0c55e"><circle cx="364" cy="140.1" r="32"/><path d="m506.5 165.9c-10.7-27.2-30.3-66.4-62.9-98.9-32.6-32.4-71.4-51.4-98.2-61.7-29.5-11.3-62.9-4.2-85.3 18.1l-78.5 78.2c-23.3 23.2-30 58.8-16.7 88.7 4.1 9.3 8.6 18.3 13.4 27.1l-172.4 172.4c-3.8 3.8-5.9 8.8-5.9 14.1v88c0 11 9 20 20 20h88c11 0 20-9 20-20v-36h36c11 0 20-9 20-20v-36h36c11 0 20-9 20-20s-9-20-20-20h-56c-11 0-20 9-20 20v36h-36c-11 0-20 9-20 20v36h-48v-59.7l177.4-177.4c6.5-6.5 7.7-16.6 3-24.5-6.9-11.4-13.3-23.6-18.9-36.3-6.6-14.8-3.2-32.6 8.4-44.1l78.5-78.2c11.2-11.2 28-14.7 42.8-9.1 23.2 8.9 56.7 25.2 84.3 52.7 27.7 27.6 44.6 61.6 53.9 85.2 5.8 14.7 2.3 31.5-9 42.7l-79.5 79.1c-11.6 11.5-28.9 14.9-44 8.6-12.5-5.2-24.6-11.4-36-18.4-9.4-5.8-21.7-2.8-27.5 6.6s-2.8 21.7 6.6 27.5c13.2 8.1 27.1 15.2 41.6 21.2 30.1 12.5 64.5 5.8 87.6-17.2l79.5-79.1c22.3-22.3 29.4-56 17.8-85.6z"/></g></svg>