<svg enable-background="new 0 0 512 512" viewBox="0 0 512 512" xmlns="http://www.w3.org/2000/svg"><path d="m471.4 325c-17-14.9-37.5-27.8-61.2-38.3-10.1-4.5-21.9.1-26.4 10.2s.1 21.9 10.2 26.4c19.9 8.9 37.1 19.5 51 31.8 17.2 15.1 27 36.9 27 59.9v37c0 11-9 20-20 20h-392c-11 0-20-9-20-20v-37c0-23 9.8-44.9 27-59.9 20.2-17.8 79.1-59.1 189-59.1 81.6 0 148-66.4 148-148s-66.4-148-148-148-148 66.4-148 148c0 47.7 22.7 90.2 57.9 117.3-64.4 14.1-104.4 41.3-125.3 59.7-25.8 22.7-40.6 55.5-40.6 90v37c0 33.1 26.9 60 60 60h392c33.1 0 60-26.9 60-60v-37c0-34.5-14.8-67.3-40.6-90zm-323.4-177c0-59.6 48.4-108 108-108s108 48.4 108 108-48.4 108-108 108-108-48.4-108-108z" fill="#e0c55e"/></svg>